<svg width="475" height="365" viewBox="0 0 475 365" fill="none" xmlns="http://www.w3.org/2000/svg">
<g clip-path="url(#clip0_214_3171)">
<path d="M174.494 368.061C174.494 368.061 181.775 350.131 159.934 336.683L174.494 368.061Z" fill="#E6E6E6"/>
<path d="M183.448 367.735C183.448 367.735 185.669 354.955 202.858 355.065L183.448 367.735Z" fill="#E6E6E6"/>
<path d="M19.2366 368.061C19.2366 368.061 28.8553 344.372 4.00543e-05 326.606L19.2366 368.061Z" fill="#E6E6E6"/>
<path d="M31.0658 367.63C31.0658 367.63 33.9998 350.746 56.7096 350.891L31.0658 367.63Z" fill="#E6E6E6"/>
<path d="M199.135 102.571L208.635 97.5228L207.924 97.1447L198.425 102.194L199.135 102.571Z" fill="#CBCBCB"/>
<path d="M207.421 102.571L208.132 102.194L198.633 97.1447L197.922 97.5228L207.421 102.571Z" fill="#CBCBCB"/>
<path d="M278.121 63.4394L278.579 64.3345L275.896 65.7103L275.438 64.8153L278.121 63.4394Z" fill="#CBCBCB"/>
<path d="M222.485 93.0945L227.826 90.3561L227.368 89.461L222.027 92.1994L222.485 93.0945ZM233.167 87.6177L238.509 84.8791L238.05 83.9839L232.709 86.7226L233.167 87.6177ZM243.85 82.1407L249.191 79.4023L248.732 78.5072L243.391 81.2456L243.85 82.1407ZM254.532 76.6639L259.873 73.9255L259.414 73.0304L254.073 75.7688L254.532 76.6639ZM265.214 71.1871L270.555 68.4487L270.097 67.5536L264.756 70.292L265.214 71.1871Z" fill="#CBCBCB"/>
<path d="M216.686 94.9378L217.144 95.8329L214.461 97.2087L214.003 96.3136L216.686 94.9378Z" fill="#CBCBCB"/>
<path d="M419.297 130.761C419.297 131.075 419.307 131.387 419.328 131.696C419.442 133.477 419.892 135.221 420.653 136.835C420.659 136.848 420.666 136.861 420.672 136.874C420.708 136.949 420.744 137.024 420.781 137.098C421.008 137.554 421.259 137.998 421.534 138.427C422.79 140.397 424.512 142.026 426.547 143.172C428.582 144.318 430.868 144.945 433.202 144.997L433.062 153.095L431.226 152.128L430.898 152.751L433.048 153.884L432.785 168.924L432.782 169.125L434.201 169.441L434.198 169.239L433.751 144.998C435.631 144.971 437.486 144.571 439.209 143.82C440.932 143.07 442.489 141.985 443.79 140.628C443.879 140.535 443.968 140.44 444.054 140.345L444.064 140.334C445.148 139.152 446.024 137.795 446.657 136.321C446.643 136.336 446.628 136.351 446.614 136.367C448.043 133.024 448.14 129.261 446.885 125.848C445.63 122.436 443.119 119.633 439.865 118.014C439.816 117.99 439.766 117.966 439.716 117.941C436.498 116.39 432.814 116.106 429.396 117.144C425.978 118.182 423.074 120.468 421.261 123.547C421.174 123.693 421.09 123.842 421.01 123.991C419.883 126.07 419.294 128.397 419.297 130.761Z" fill="#E5E5E5"/>
<path d="M421.213 136.882C410.911 136.882 402.559 128.526 402.559 118.218C402.559 107.91 410.911 99.5543 421.213 99.5543C431.515 99.5543 439.866 107.91 439.866 118.218C439.866 128.526 431.515 136.882 421.213 136.882Z" fill="#E5E5E5"/>
<path opacity="0.2" d="M434.986 105.752C436.726 109.824 436.962 114.383 435.652 118.613C434.342 122.844 431.571 126.47 427.835 128.845C424.098 131.219 419.64 132.187 415.256 131.575C410.872 130.964 406.848 128.812 403.904 125.505C404.967 127.993 406.558 130.22 408.566 132.032C410.575 133.844 412.953 135.197 415.536 135.998C418.119 136.799 420.845 137.028 423.526 136.67C426.206 136.312 428.777 135.375 431.06 133.925C433.342 132.474 435.282 130.544 436.746 128.269C438.209 125.993 439.16 123.427 439.534 120.747C439.907 118.067 439.694 115.338 438.909 112.749C438.124 110.16 436.785 107.772 434.986 105.752Z" fill="black"/>
<path d="M420.204 170.212L422.109 169.677L422.105 169.472L421.534 138.427L421.506 136.879L421.505 136.834L421.405 131.41L421.261 123.548V123.547L421.162 118.218H421.11L421.009 123.991L420.879 131.506L420.785 136.837V136.877L420.781 137.097V137.098L420.6 147.491L420.581 148.524L420.207 170.005L420.204 170.212Z" fill="#676677"/>
<path d="M418.195 146.224L421.278 147.848L420.849 148.665L417.765 147.04L418.195 146.224Z" fill="#676677"/>
<path d="M179.408 57.8155C202.952 56.4228 226.567 56.786 250.057 58.9021C261.379 59.9261 272.881 61.0321 283.993 63.5031C292.944 65.4934 303.333 68.8573 308.91 76.6924C310.078 78.2711 310.865 80.0988 311.209 82.0325C311.554 83.9661 311.447 85.9534 310.897 87.8388C309.567 92.3053 306.259 96.0231 302.736 98.9351C294.628 105.637 284.567 109.537 275.581 114.862C259.174 124.583 244.157 137.687 234.519 154.333C230.278 161.658 226.243 171.397 230.966 179.468C235.593 187.375 245.921 190.099 254.344 191.384C264.901 192.994 275.776 192.557 286.377 191.656C298 190.571 309.557 188.877 321.002 186.581C343.424 182.274 365.642 176.794 388.375 174.302C399.774 172.961 411.269 172.628 422.726 173.308C433.073 174.007 443.509 175.644 453.229 179.377C460.719 182.254 468.704 186.606 472.749 193.864C476.65 200.861 475.128 208.929 470.882 215.384C465.772 223.151 457.804 228.474 449.52 232.364C440.088 236.793 429.999 239.664 419.898 242.106C414.775 243.344 409.624 244.464 404.473 245.577C403.398 245.81 402.939 244.158 404.017 243.925C414.406 241.679 424.824 239.426 434.954 236.175C444.328 233.166 453.921 229.312 461.598 222.994C467.809 217.883 473.714 210.418 473.347 201.931C472.978 193.374 465.803 187.4 458.77 183.723C449.981 179.127 439.996 176.889 430.212 175.719C419.009 174.47 407.71 174.316 396.477 175.26C373.798 176.986 351.625 182.156 329.388 186.664C307.786 191.044 285.509 195.1 263.371 193.977C254.596 193.532 245.194 192.274 237.446 187.842C233.899 185.813 230.7 182.952 228.897 179.228C227.273 175.685 226.759 171.733 227.424 167.892C228.68 159.456 233.689 151.633 238.686 144.913C244.164 137.624 250.518 131.038 257.605 125.304C265.383 119.041 273.769 113.575 282.638 108.988C287.341 106.51 292.111 104.128 296.593 101.258C300.891 98.5065 305.13 95.1959 307.755 90.7293C310.024 86.866 310.441 82.4568 308.077 78.5387C305.685 74.5757 301.566 71.8118 297.503 69.7921C287.714 64.9258 276.334 63.6232 265.624 62.2884C242.629 59.4323 219.454 58.2762 196.289 58.8295C190.658 58.962 185.032 59.1952 179.408 59.5291C178.307 59.5939 178.311 57.8801 179.408 57.8155Z" fill="black"/>
<path d="M194.344 2.88581L190.788 0.0398571C193.551 -0.265122 194.686 1.24246 195.151 2.43573C197.309 1.53899 199.659 2.7142 199.659 2.7142L192.543 5.29883C192.902 4.3395 193.527 3.50245 194.344 2.88581Z" fill="#676677"/>
<path d="M211.604 11.8956L208.047 9.04965C210.81 8.74468 211.945 10.2523 212.41 11.4455C214.568 10.5488 216.918 11.724 216.918 11.724L209.802 14.3086C210.161 13.3493 210.786 12.5122 211.604 11.8956Z" fill="#676677"/>
<path d="M194.344 26.1611L190.788 23.3152C193.551 23.0102 194.686 24.5178 195.151 25.711C197.309 24.8143 199.659 25.9895 199.659 25.9895L192.543 28.5742C192.902 27.6148 193.527 26.7778 194.344 26.1611Z" fill="#676677"/>
<path d="M247.659 30.3776C241.742 30.3776 236.945 25.5778 236.945 19.6569C236.945 13.7361 241.742 8.93625 247.659 8.93625C253.577 8.93625 258.374 13.7361 258.374 19.6569C258.374 25.5778 253.577 30.3776 247.659 30.3776Z" fill="#F9F871"/>
<path d="M214.06 52.6924H266.624C266.689 52.6932 266.755 52.688 266.82 52.6768L241.959 9.5939C241.808 9.32552 241.587 9.10225 241.321 8.9469C241.055 8.79155 240.752 8.70969 240.444 8.70969C240.136 8.70969 239.834 8.79155 239.567 8.9469C239.301 9.10225 239.081 9.32552 238.93 9.5939L222.246 38.5049L221.447 39.8881L214.06 52.6924Z" fill="#84878B"/>
<path d="M184.795 52.6929H230.257L221.448 39.8896L220.814 38.967L209.334 22.2821C209.131 22.0268 208.877 21.8171 208.588 21.6667C208.298 21.5163 207.981 21.4285 207.655 21.4091C207.33 21.3896 207.004 21.439 206.699 21.5539C206.394 21.6687 206.116 21.8466 205.884 22.0759C205.825 22.1411 205.769 22.2099 205.719 22.2821L184.795 52.6929Z" fill="#84878B"/>
<path d="M259.787 151.504C254.805 153.996 251.772 157.286 251.772 160.896C251.772 168.671 265.834 174.974 283.18 174.974C290.721 174.974 297.64 173.782 303.054 171.796C297.303 174.672 288.956 176.483 279.662 176.483C262.316 176.483 248.254 170.179 248.254 162.404C248.254 158.009 252.749 154.086 259.787 151.504Z" fill="#F1F1F1"/>
<path d="M248.705 156.845C243.083 159.656 239.66 163.37 239.66 167.442C239.66 176.216 255.527 183.328 275.1 183.328C283.61 183.328 291.417 181.983 297.526 179.742C291.037 182.987 281.618 185.03 271.131 185.03C251.558 185.03 235.691 177.918 235.691 169.144C235.691 164.185 240.763 159.758 248.705 156.845Z" fill="#F1F1F1"/>
<path d="M264.029 153.857C260.519 155.612 258.382 157.93 258.382 160.473C258.382 165.951 268.288 170.392 280.509 170.392C285.27 170.453 290.006 169.696 294.511 168.153C290.46 170.179 284.579 171.455 278.031 171.455C265.81 171.455 255.903 167.014 255.903 161.536C255.903 158.44 259.07 155.676 264.029 153.857Z" fill="#F1F1F1"/>
<path d="M313.349 152.851C313.349 152.851 312.577 164.132 290.466 164.132C268.355 164.132 261.754 152.851 261.754 152.851H313.349Z" fill="#676677"/>
<path d="M281.964 123.254C285.156 120.827 289.163 119.731 293.145 120.194C289.586 121.052 286.444 123.137 284.268 126.083C282.093 129.028 281.024 132.646 281.249 136.302C281.474 139.957 282.979 143.417 285.499 146.073C288.019 148.729 291.394 150.412 295.031 150.827C291.552 151.667 287.89 151.283 284.661 149.74C281.432 148.197 278.832 145.588 277.299 142.353C275.766 139.118 275.392 135.453 276.242 131.974C277.092 128.496 279.112 125.417 281.964 123.254Z" fill="#676677"/>
<path d="M289.21 118.158H290.717V154.063H289.21V118.158Z" fill="#676677"/>
<path d="M190.133 91.4804L190.141 91.4666L190.162 90.5895L185.439 83.7286L190.156 89.9331L190.173 90.1185L190.334 83.1058L186.255 75.9925L190.346 81.8738L190.303 67.3452L190.304 67.2968L190.305 67.3444L190.576 78.7949L194.294 74.1437L190.588 79.7813L190.669 86.0541L194.09 79.9321L190.681 86.9763L190.727 90.4642L190.852 100.128L190.861 100.85C190.546 100.852 190.234 100.847 189.925 100.834L190.139 91.5521L190.133 91.4804Z" fill="#CBCBCB"/>
<path d="M212.747 94.4972L212.755 94.4834L212.775 93.6063L208.052 86.7454L212.77 92.9499L212.786 93.1353L212.948 86.1225L208.869 79.0093L212.959 84.8906L212.917 70.362L212.917 70.3136L212.918 70.3612L213.189 81.8117L216.907 77.1605L213.201 82.7981L213.282 89.0708L216.704 82.9489L213.295 89.993L213.34 93.481L213.465 103.144L213.474 103.866C213.159 103.869 212.847 103.863 212.539 103.851L212.753 94.5688L212.747 94.4972Z" fill="#CBCBCB"/>
<path d="M201.691 84.944L201.699 84.9302L201.72 84.0532L196.997 77.1922L201.714 83.3967L201.731 83.5821L201.892 76.5694L197.813 69.4561L201.904 75.3374L201.861 60.8088L201.862 60.7605L201.863 60.808L202.134 72.2585L205.852 67.6073L202.146 73.2449L202.227 79.5177L205.648 73.3957L202.239 80.4399L202.285 83.9278L202.41 93.5911L202.419 94.3132C202.104 94.3156 201.792 94.3103 201.483 94.2974L201.697 85.0157L201.691 84.944Z" fill="#CBCBCB"/>
<path d="M388.458 251.902C385.128 251.902 382.428 249.201 382.428 245.869C382.428 242.537 385.128 239.835 388.458 239.835C391.789 239.835 394.489 242.537 394.489 245.869C394.489 249.201 391.789 251.902 388.458 251.902Z" fill="#84878B"/>
<path d="M66.583 357.244L72.1658 359.319L82.8232 338.761L74.5835 335.699L66.583 357.244Z" fill="#FFB7B7"/>
<path d="M63.1487 362.129L81.1498 368.821L81.2344 368.593C81.9247 366.734 81.8487 364.676 81.023 362.873C80.1973 361.07 78.6895 359.669 76.8314 358.978L65.8364 354.891L63.1487 362.129Z" fill="#4C4A6D"/>
<path d="M121.524 363.045L127.48 363.044L130.313 340.06L121.523 340.06L121.524 363.045Z" fill="#FFB7B7"/>
<path d="M120.491 368.821L139.694 368.82V368.577C139.694 366.594 138.907 364.692 137.505 363.289C136.103 361.887 134.202 361.099 132.22 361.099L120.49 361.099L120.491 368.821Z" fill="#4C4A6D"/>
<path d="M94.2571 203.638L96.2002 199.75L112.717 208.013L112.231 211.415L115.389 215.546C115.389 215.546 120.732 218.463 119.761 228.184L118.789 237.419L117.575 249.327L126.076 278.733L130.448 317.617L133.606 348.968L118.304 348.239L104.216 297.203L79.4406 352.127L62.4381 347.753L85.7558 293.315L88.6706 270.47C88.6706 270.47 86.7274 258.319 95.9573 250.056L94.5 245.682V240.291L89.6421 214.574L94.2571 203.638Z" fill="#4C4A6D"/>
<path opacity="0.2" d="M93.8032 259.214L104.49 297.126L103.941 297.281L93.2538 259.369L93.8032 259.214Z" fill="black"/>
<path d="M94.7429 249.327H118.546V251.757H94.7429V249.327Z" fill="#676677"/>
<path d="M118.546 253.215C118.01 253.215 117.575 252.127 117.575 250.785C117.575 249.443 118.01 248.355 118.546 248.355C119.083 248.355 119.518 249.443 119.518 250.785C119.518 252.127 119.083 253.215 118.546 253.215Z" fill="#676677"/>
<path d="M101.601 197.352C95.3259 193.92 93.0197 186.048 96.45 179.769C99.8802 173.491 107.748 171.183 114.023 174.615C120.298 178.048 122.604 185.92 119.174 192.198C115.744 198.477 107.876 200.784 101.601 197.352Z" fill="#FFB7B7"/>
<path d="M87.9971 181.359C81.6705 181.359 76.5417 176.227 76.5417 169.897C76.5417 163.567 81.6705 158.435 87.9971 158.435C94.3238 158.435 99.4525 163.567 99.4525 169.897C99.4525 176.227 94.3238 181.359 87.9971 181.359Z" fill="#4C4A6D"/>
<path d="M73.46 168.669C73.0082 170.188 72.8759 171.784 73.0716 173.356C73.2674 174.928 73.7868 176.443 74.5971 177.804C75.4074 179.166 76.491 180.344 77.7795 181.266C79.0679 182.187 80.5333 182.831 82.083 183.157C83.6328 183.483 85.2333 183.484 86.7834 183.159C88.3336 182.835 89.7997 182.193 91.0893 181.273C92.3788 180.354 93.4639 179.177 94.2758 177.816C95.0877 176.456 95.6089 174.942 95.8065 173.37C94.9857 176.127 93.1586 178.475 90.688 179.947C88.2174 181.418 85.2839 181.907 82.47 181.315C79.6561 180.723 77.1675 179.094 75.4984 176.752C73.8292 174.409 73.1016 171.524 73.46 168.669Z" fill="#4C4A6D"/>
<path d="M118.716 182.387C119.052 185.349 118.402 188.34 116.867 190.896C115.332 193.452 112.997 195.43 110.225 196.523C107.452 197.616 104.397 197.764 101.532 196.944C98.6665 196.123 96.1519 194.38 94.3773 191.985C92.6027 189.59 91.6673 186.675 91.716 183.694C91.7647 180.713 92.7948 177.831 94.6466 175.494C96.4984 173.158 99.0686 171.498 101.959 170.772C104.849 170.046 107.898 170.294 110.634 171.477C112.896 169.652 115.701 170.217 117.981 172.144C120.559 174.322 121.325 175.818 123.324 179.401C121.358 179.677 120.682 182.11 118.716 182.387Z" fill="#4C4A6D"/>
<path d="M71.1181 221.349C71.263 225.189 71.5502 232.747 71.5502 233.132C71.5502 233.539 77.2766 245.402 79.7505 250.508V250.51C79.9265 250.87 80.0843 251.196 80.2241 251.484C80.4154 251.88 80.7162 252.213 81.0909 252.443C81.4656 252.674 81.8985 252.792 82.3382 252.783L93.1494 252.589C93.7436 252.579 94.3109 252.34 94.7329 251.921C95.1548 251.502 95.3987 250.936 95.4136 250.342L96.6195 202.752C96.6235 202.595 96.596 202.439 96.5388 202.293C96.4816 202.147 96.3957 202.013 96.2862 201.901C96.1767 201.788 96.0459 201.699 95.9013 201.638C95.7568 201.577 95.6016 201.545 95.4447 201.545H81.5023C80.9134 201.546 80.3365 201.712 79.8376 202.025C79.3388 202.338 78.9382 202.786 78.6818 203.316L71.9901 217.168C71.3627 218.47 71.0633 219.905 71.1181 221.349Z" fill="#84878B"/>
<path d="M95.6017 247.076C98.3759 245.394 100.869 243.286 102.989 240.83C107.915 235.286 110.911 228.294 111.527 220.901C112.076 214.577 110.822 209.876 107.799 206.928C103.956 203.182 98.7248 203.726 98.504 203.751L98.2698 203.778L94.7259 206.778L95.7287 207.964L98.8998 205.279C99.8704 205.231 103.833 205.22 106.728 208.053C109.392 210.661 110.486 214.938 109.98 220.767C109.394 227.805 106.549 234.465 101.869 239.752C99.8499 242.089 97.4833 244.1 94.8523 245.716L95.6017 247.076Z" fill="#84878B"/>
<path d="M75.4836 228.996L94.3739 232.878L94.2698 233.385L75.3795 229.503L75.4836 228.996Z" fill="#676677"/>
<path d="M87.9341 201.535L88.4513 201.556L87.2244 231.63L86.7072 231.609L87.9341 201.535Z" fill="#676677"/>
<path d="M71.1181 221.349C71.263 225.189 71.5502 232.747 71.5502 233.132C71.5502 233.539 77.2766 245.402 79.7505 250.508L75.1393 223.718C74.9609 222.688 74.5121 221.723 73.8388 220.923C73.1654 220.122 72.2916 219.516 71.3069 219.164C71.152 219.882 71.0885 220.616 71.1181 221.349Z" fill="#676677"/>
<path d="M99.4491 277.492C99.0409 276.966 98.7529 276.356 98.6055 275.707C98.4582 275.057 98.4551 274.383 98.5963 273.731C98.7376 273.08 99.0198 272.468 99.4231 271.938C99.8264 271.408 100.341 270.972 100.931 270.663L99.9935 260.29L106.155 258.183L107.273 272.85C107.727 273.875 107.789 275.032 107.448 276.101C107.107 277.169 106.386 278.076 105.422 278.648C104.458 279.22 103.317 279.419 102.216 279.206C101.115 278.993 100.131 278.383 99.4491 277.492Z" fill="#FFB7B7"/>
<path d="M98.6441 267.455L109.561 267.059L109.1 214.381C109.107 212.89 108.647 211.435 107.783 210.221C106.919 209.006 105.695 208.094 104.285 207.613C102.967 207.175 101.543 207.174 100.224 207.61C98.7289 208.116 97.4445 209.107 96.574 210.424C95.7034 211.742 95.2962 213.313 95.4166 214.888L98.6441 267.455Z" fill="#CBCBCB"/>
</g>
<defs>
<clipPath id="clip0_214_3171">
<rect width="475" height="369" fill="white" transform="matrix(-1 0 0 1 475 0)"/>
</clipPath>
</defs>
</svg>
