<svg width="475" height="369" viewBox="0 0 475 369" fill="none" xmlns="http://www.w3.org/2000/svg">
<path d="M174.494 368.061C174.494 368.061 181.775 350.131 159.933 336.683L174.494 368.061Z" fill="#E6E6E6"/>
<path d="M183.448 367.735C183.448 367.735 185.669 354.955 202.858 355.065L183.448 367.735Z" fill="#E6E6E6"/>
<path d="M19.2366 368.061C19.2366 368.061 28.8553 344.372 4.00543e-05 326.606L19.2366 368.061Z" fill="#E6E6E6"/>
<path d="M31.0658 367.631C31.0658 367.631 33.9998 350.746 56.7096 350.891L31.0658 367.631Z" fill="#E6E6E6"/>
<path d="M199.135 102.571L208.635 97.5229L207.924 97.1448L198.425 102.194L199.135 102.571Z" fill="#CBCBCB"/>
<path d="M207.421 102.571L208.132 102.194L198.633 97.1448L197.922 97.5229L207.421 102.571Z" fill="#CBCBCB"/>
<path d="M278.121 63.4394L278.579 64.3345L275.896 65.7103L275.438 64.8152L278.121 63.4394Z" fill="#CBCBCB"/>
<path d="M222.485 93.0946L227.826 90.3562L227.368 89.4611L222.027 92.1994L222.485 93.0946ZM233.167 87.6178L238.509 84.8791L238.05 83.984L232.709 86.7227L233.167 87.6178ZM243.85 82.1408L249.191 79.4024L248.732 78.5073L243.391 81.2456L243.85 82.1408ZM254.532 76.664L259.873 73.9256L259.414 73.0305L254.073 75.7689L254.532 76.664ZM265.214 71.1872L270.555 68.4488L270.097 67.5537L264.756 70.2921L265.214 71.1872Z" fill="#CBCBCB"/>
<path d="M216.686 94.9377L217.144 95.8328L214.461 97.2086L214.003 96.3135L216.686 94.9377Z" fill="#CBCBCB"/>
<path d="M418.195 146.224L421.278 147.848L420.849 148.665L417.765 147.041L418.195 146.224Z" fill="#676677"/>
<path d="M194.344 2.88581L190.788 0.0398571C193.551 -0.265122 194.686 1.24246 195.151 2.43573C197.309 1.53899 199.659 2.7142 199.659 2.7142L192.543 5.29883C192.902 4.3395 193.527 3.50245 194.344 2.88581Z" fill="#676677"/>
<path d="M211.604 11.8956L208.047 9.04962C210.81 8.74465 211.945 10.2522 212.41 11.4455C214.568 10.5488 216.918 11.724 216.918 11.724L209.802 14.3086C210.161 13.3493 210.786 12.5122 211.604 11.8956Z" fill="#676677"/>
<path d="M194.344 26.1612L190.788 23.3152C193.551 23.0103 194.686 24.5178 195.151 25.7111C197.309 24.8144 199.659 25.9896 199.659 25.9896L192.543 28.5742C192.902 27.6149 193.527 26.7778 194.344 26.1612Z" fill="#676677"/>
<path d="M259.787 151.504C254.805 153.996 251.772 157.286 251.772 160.896C251.772 168.671 265.834 174.974 283.18 174.974C290.721 174.974 297.64 173.782 303.054 171.796C297.304 174.672 288.956 176.483 279.662 176.483C262.316 176.483 248.254 170.18 248.254 162.404C248.254 158.009 252.749 154.086 259.787 151.504Z" fill="#F1F1F1"/>
<path d="M238.266 234.084C232.644 236.896 229.221 240.609 229.221 244.682C229.221 253.455 245.089 260.568 264.661 260.568C273.171 260.568 280.978 259.222 287.087 256.981C280.599 260.226 271.179 262.27 260.692 262.27C241.119 262.27 225.252 255.157 225.252 246.384C225.252 241.425 230.324 236.998 238.266 234.084Z" fill="#F1F1F1"/>
<path d="M253.59 231.096C250.08 232.852 247.943 235.17 247.943 237.713C247.943 243.191 257.85 247.631 270.07 247.631C274.831 247.693 279.568 246.936 284.072 245.392C280.021 247.418 274.14 248.694 267.592 248.694C255.371 248.694 245.464 244.253 245.464 238.776C245.464 235.679 248.631 232.915 253.59 231.096Z" fill="#F1F1F1"/>
<path d="M302.91 230.091C302.91 230.091 302.138 241.371 280.027 241.371C257.916 241.371 251.315 230.091 251.315 230.091H302.91Z" fill="#676677"/>
<path d="M271.525 200.493C274.718 198.067 278.724 196.97 282.706 197.433C279.147 198.292 276.005 200.376 273.83 203.322C271.654 206.268 270.585 209.886 270.81 213.541C271.036 217.197 272.54 220.656 275.06 223.312C277.58 225.968 280.955 227.652 284.592 228.067C281.113 228.907 277.451 228.523 274.222 226.98C270.993 225.436 268.393 222.828 266.86 219.592C265.327 216.357 264.954 212.692 265.803 209.214C266.653 205.736 268.674 202.656 271.525 200.493Z" fill="#676677"/>
<path d="M278.771 195.397H280.279V231.302H278.771V195.397Z" fill="#676677"/>
<path d="M179.694 168.72L179.703 168.706L179.723 167.829L175 160.968L179.717 167.173L179.734 167.358L179.896 160.345L175.816 153.232L179.907 159.113L179.865 144.585L179.865 144.536L179.866 144.584L180.137 156.034L183.855 151.383L180.149 157.021L180.23 163.294L183.651 157.172L180.243 164.216L180.288 167.704L180.413 177.367L180.422 178.089C180.107 178.091 179.795 178.086 179.486 178.073L179.7 168.792L179.694 168.72Z" fill="#CBCBCB"/>
<path d="M202.308 171.737L202.316 171.723L202.336 170.846L197.613 163.985L202.331 170.189L202.348 170.375L202.509 163.362L198.43 156.249L202.521 162.13L202.478 147.602L202.478 147.553L202.479 147.601L202.75 159.051L206.468 154.4L202.762 160.038L202.844 166.31L206.265 160.189L202.856 167.233L202.901 170.721L203.026 180.384L203.035 181.106C202.72 181.108 202.409 181.103 202.1 181.09L202.314 171.808L202.308 171.737Z" fill="#CBCBCB"/>
<path d="M191.252 162.184L191.26 162.17L191.281 161.293L186.558 154.432L191.275 160.636L191.292 160.822L191.454 153.809L187.374 146.696L191.465 152.577L191.422 138.048L191.423 138L191.424 138.048L191.695 149.498L195.413 144.847L191.707 150.484L191.788 156.757L195.209 150.635L191.801 157.679L191.846 161.167L191.971 170.831L191.98 171.553C191.665 171.555 191.353 171.55 191.044 171.537L191.258 162.255L191.252 162.184Z" fill="#CBCBCB"/>
<path d="M388.458 251.902C385.128 251.902 382.428 249.201 382.428 245.869C382.428 242.537 385.128 239.835 388.458 239.835C391.789 239.835 394.489 242.537 394.489 245.869C394.489 249.201 391.789 251.902 388.458 251.902Z" fill="#84878B"/>
<path d="M66.583 357.244L72.1658 359.319L82.8232 338.762L74.5835 335.699L66.583 357.244Z" fill="#FFB7B7"/>
<path d="M63.1487 362.129L81.1498 368.821L81.2344 368.593C81.9247 366.734 81.8487 364.676 81.023 362.873C80.1973 361.07 78.6895 359.669 76.8314 358.978L65.8364 354.891L63.1487 362.129Z" fill="#4C4A6D"/>
<path d="M121.524 363.045L127.48 363.044L130.313 340.06L121.523 340.06L121.524 363.045Z" fill="#FFB7B7"/>
<path d="M120.491 368.821L139.694 368.82V368.577C139.694 366.594 138.907 364.692 137.505 363.289C136.103 361.887 134.202 361.099 132.22 361.099L120.49 361.099L120.491 368.821Z" fill="#4C4A6D"/>
<path d="M94.2571 203.638L96.2002 199.75L112.717 208.013L112.231 211.415L115.389 215.546C115.389 215.546 120.732 218.463 119.761 228.184L118.789 237.419L117.575 249.327L126.076 278.733L130.448 317.618L133.606 348.968L118.304 348.239L104.216 297.203L79.4406 352.127L62.4381 347.753L85.7558 293.315L88.6706 270.47C88.6706 270.47 86.7274 258.319 95.9573 250.056L94.5 245.682V240.291L89.6421 214.574L94.2571 203.638Z" fill="#4C4A6D"/>
<path opacity="0.2" d="M93.8032 259.214L104.49 297.125L103.941 297.281L93.2538 259.369L93.8032 259.214Z" fill="black"/>
<path d="M94.7429 249.327H118.546V251.757H94.7429V249.327Z" fill="#676677"/>
<path d="M118.546 253.216C118.01 253.216 117.575 252.127 117.575 250.785C117.575 249.443 118.01 248.355 118.546 248.355C119.083 248.355 119.518 249.443 119.518 250.785C119.518 252.127 119.083 253.216 118.546 253.216Z" fill="#676677"/>
<path d="M101.601 197.352C95.3259 193.92 93.0197 186.048 96.45 179.769C99.8803 173.491 107.748 171.183 114.023 174.615C120.298 178.048 122.604 185.92 119.174 192.198C115.744 198.477 107.876 200.784 101.601 197.352Z" fill="#FFB7B7"/>
<path d="M87.9971 181.359C81.6704 181.359 76.5417 176.227 76.5417 169.897C76.5417 163.567 81.6704 158.435 87.9971 158.435C94.3238 158.435 99.4525 163.567 99.4525 169.897C99.4525 176.227 94.3238 181.359 87.9971 181.359Z" fill="#4C4A6D"/>
<path d="M73.46 168.669C73.0082 170.188 72.8759 171.784 73.0716 173.356C73.2674 174.928 73.7868 176.443 74.5971 177.804C75.4074 179.166 76.491 180.344 77.7795 181.266C79.0679 182.187 80.5333 182.831 82.083 183.157C83.6328 183.483 85.2333 183.484 86.7834 183.159C88.3336 182.835 89.7997 182.193 91.0893 181.273C92.3788 180.354 93.4639 179.177 94.2758 177.816C95.0877 176.456 95.6089 174.942 95.8065 173.37C94.9857 176.127 93.1586 178.475 90.688 179.947C88.2174 181.418 85.2839 181.907 82.47 181.315C79.6561 180.723 77.1675 179.094 75.4984 176.752C73.8292 174.409 73.1016 171.524 73.46 168.669Z" fill="#4C4A6D"/>
<path d="M118.716 182.387C119.052 185.349 118.402 188.34 116.867 190.896C115.332 193.452 112.997 195.429 110.225 196.523C107.452 197.616 104.397 197.764 101.532 196.944C98.6665 196.123 96.1519 194.38 94.3773 191.985C92.6027 189.589 91.6673 186.675 91.716 183.694C91.7647 180.713 92.7948 177.831 94.6466 175.494C96.4984 173.158 99.0686 171.498 101.959 170.772C104.849 170.046 107.898 170.293 110.634 171.477C112.896 169.651 115.701 170.217 117.981 172.144C120.559 174.322 121.325 175.818 123.324 179.401C121.358 179.677 120.682 182.11 118.716 182.387Z" fill="#4C4A6D"/>
<path d="M71.1181 221.349C71.263 225.189 71.5502 232.747 71.5502 233.132C71.5502 233.539 77.2767 245.402 79.7505 250.508V250.51C79.9265 250.87 80.0844 251.196 80.2241 251.484C80.4154 251.88 80.7162 252.213 81.0909 252.443C81.4656 252.674 81.8985 252.792 82.3382 252.783L93.1494 252.589C93.7436 252.579 94.311 252.34 94.7329 251.921C95.1548 251.502 95.3987 250.936 95.4136 250.342L96.6195 202.752C96.6235 202.595 96.5961 202.439 96.5388 202.293C96.4816 202.147 96.3957 202.013 96.2862 201.901C96.1768 201.788 96.0459 201.699 95.9014 201.638C95.7569 201.577 95.6016 201.546 95.4447 201.545H81.5024C80.9134 201.546 80.3365 201.712 79.8377 202.025C79.3388 202.338 78.9382 202.786 78.6818 203.316L71.9902 217.168C71.3628 218.47 71.0633 219.905 71.1181 221.349Z" fill="#84878B"/>
<path d="M95.6017 247.076C98.3759 245.394 100.869 243.286 102.989 240.83C107.915 235.286 110.911 228.293 111.527 220.901C112.076 214.577 110.822 209.875 107.799 206.928C103.956 203.182 98.7248 203.726 98.504 203.751L98.2698 203.778L94.7259 206.778L95.7287 207.964L98.8998 205.279C99.8704 205.231 103.833 205.22 106.728 208.053C109.392 210.661 110.486 214.938 109.98 220.767C109.394 227.805 106.549 234.465 101.869 239.752C99.8499 242.089 97.4833 244.1 94.8523 245.716L95.6017 247.076Z" fill="#84878B"/>
<path d="M75.4836 228.996L94.3739 232.878L94.2698 233.385L75.3795 229.503L75.4836 228.996Z" fill="#676677"/>
<path d="M87.9341 201.535L88.4513 201.556L87.2244 231.63L86.7072 231.609L87.9341 201.535Z" fill="#676677"/>
<path d="M71.1181 221.349C71.263 225.189 71.5502 232.746 71.5502 233.132C71.5502 233.539 77.2766 245.402 79.7505 250.508L75.1393 223.718C74.9609 222.688 74.5121 221.723 73.8388 220.923C73.1654 220.122 72.2916 219.516 71.3069 219.164C71.152 219.882 71.0885 220.616 71.1181 221.349Z" fill="#676677"/>
<path d="M99.4492 277.492C99.0409 276.966 98.7529 276.356 98.6056 275.707C98.4582 275.057 98.4551 274.383 98.5963 273.731C98.7376 273.08 99.0198 272.468 99.4231 271.938C99.8264 271.408 100.341 270.972 100.931 270.663L99.9935 260.29L106.155 258.183L107.273 272.85C107.727 273.875 107.789 275.032 107.448 276.101C107.107 277.169 106.386 278.076 105.422 278.648C104.458 279.22 103.317 279.419 102.216 279.206C101.115 278.993 100.131 278.383 99.4492 277.492Z" fill="#FFB7B7"/>
<path d="M98.6441 267.455L109.561 267.059L109.1 214.381C109.107 212.89 108.647 211.435 107.783 210.221C106.919 209.006 105.695 208.094 104.285 207.613C102.967 207.175 101.543 207.174 100.224 207.61C98.7289 208.116 97.4446 209.107 96.574 210.424C95.7034 211.742 95.2962 213.313 95.4167 214.888L98.6441 267.455Z" fill="#CBCBCB"/>
<path d="M2.87027 369H220.381C220.532 369 220.677 368.94 220.785 368.833C220.892 368.726 220.952 368.58 220.952 368.429C220.952 368.277 220.892 368.132 220.785 368.025C220.677 367.918 220.532 367.858 220.381 367.858H2.87027C2.71886 367.858 2.57362 367.918 2.46657 368.025C2.3595 368.132 2.29938 368.277 2.29938 368.429C2.29938 368.58 2.3595 368.726 2.46657 368.833C2.57362 368.94 2.71886 369 2.87027 369Z" fill="#CBCBCB"/>
</svg>
