<svg width="465" height="498" viewBox="0 0 465 498" fill="none" xmlns="http://www.w3.org/2000/svg">
<g clip-path="url(#clip0_214_3130)">
<path d="M230.633 490.352C232.042 490.44 232.82 488.69 231.755 487.671L231.649 487.249C231.663 487.216 231.677 487.182 231.691 487.148C233.115 483.753 237.943 483.776 239.355 487.177C240.609 490.195 242.205 493.218 242.598 496.41C242.774 497.818 242.695 499.254 242.382 500.636C245.319 494.222 246.865 487.218 246.865 480.174C246.865 478.404 246.768 476.634 246.57 474.869C246.407 473.425 246.183 471.99 245.892 470.568C244.32 462.881 240.916 455.56 236.006 449.445C233.645 448.155 231.677 446.139 230.488 443.722C230.061 442.85 229.726 441.912 229.567 440.957C229.836 440.992 230.58 436.902 230.378 436.652C230.752 436.084 231.422 435.801 231.831 435.247C233.864 432.491 236.666 432.972 238.128 436.718C241.252 438.294 241.283 440.908 239.366 443.422C238.146 445.022 237.978 447.187 236.908 448.899C237.018 449.04 237.133 449.176 237.243 449.317C239.262 451.906 241.008 454.688 242.48 457.611C242.064 454.363 242.678 450.449 243.725 447.926C244.917 445.052 247.151 442.631 249.119 440.146C251.482 437.161 256.328 438.463 256.744 442.247C256.748 442.284 256.752 442.32 256.756 442.357C256.464 442.522 256.177 442.697 255.898 442.882C254.303 443.936 254.854 446.408 256.744 446.7L256.787 446.707C256.681 447.759 256.501 448.802 256.236 449.828C258.76 459.586 253.311 463.14 245.531 463.299C245.359 463.387 245.192 463.475 245.02 463.559C245.808 465.778 246.438 468.054 246.905 470.361C247.323 472.399 247.614 474.459 247.777 476.529C247.979 479.139 247.962 481.763 247.741 484.369L247.755 484.277C248.314 481.406 249.873 478.725 252.136 476.867C255.508 474.098 260.272 473.079 263.91 470.853C265.661 469.781 267.905 471.166 267.6 473.196L267.585 473.293C267.043 473.513 266.515 473.768 266.004 474.054C265.712 474.219 265.425 474.394 265.146 474.579C263.551 475.634 264.102 478.106 265.992 478.397L266.035 478.404C266.065 478.408 266.092 478.413 266.123 478.417C265.193 480.623 263.899 482.67 262.278 484.435C260.7 492.953 253.922 493.762 246.671 491.281H246.667C245.874 494.732 244.716 498.105 243.228 501.318H230.941C230.897 501.182 230.858 501.041 230.818 500.905C231.954 500.975 233.099 500.909 234.218 500.702C233.306 499.584 232.395 498.457 231.483 497.339C231.461 497.317 231.443 497.295 231.426 497.273C230.963 496.7 230.497 496.132 230.034 495.56L230.034 495.559C230.005 493.803 230.216 492.051 230.633 490.352Z" fill="#F2F2F2"/>
<path d="M52.8408 490.352C53.2583 492.051 53.4693 493.803 53.4404 495.559L53.4401 495.56C52.9777 496.132 52.5109 496.7 52.0485 497.273C52.031 497.295 52.0133 497.317 51.9913 497.339C51.0797 498.457 50.1681 499.584 49.2566 500.702C50.3751 500.909 51.5201 500.975 52.6563 500.905C52.6166 501.041 52.577 501.182 52.533 501.318H40.2466C38.7581 498.105 37.5999 494.732 36.8073 491.281H36.8028C29.5523 493.762 22.7742 492.953 21.196 484.435C19.5755 482.67 18.2808 480.623 17.3516 478.417C17.3824 478.413 17.4088 478.408 17.4396 478.404L17.4825 478.397C19.3725 478.106 19.9237 475.634 18.3286 474.579C18.049 474.394 17.7627 474.219 17.4705 474.054C16.9596 473.768 16.4312 473.513 15.8896 473.293L15.8747 473.196C15.5691 471.166 17.813 469.781 19.5641 470.853C23.2019 473.079 27.9658 474.098 31.3378 476.867C33.6013 478.725 35.1603 481.406 35.7195 484.277L35.7328 484.369C35.5125 481.763 35.4949 479.139 35.6975 476.529C35.8604 474.459 36.1511 472.399 36.5694 470.361C37.0362 468.054 37.666 465.778 38.4542 463.559C38.2825 463.475 38.1151 463.387 37.9434 463.299C30.163 463.14 24.714 459.586 27.2379 449.828C26.9737 448.802 26.7932 447.759 26.6875 446.707L26.7303 446.7C28.6202 446.408 29.1715 443.936 27.5764 442.882C27.2968 442.697 27.0105 442.522 26.7183 442.357C26.7221 442.32 26.726 442.284 26.7301 442.247C27.1464 438.463 31.9923 437.161 34.3555 440.146C36.3229 442.631 38.557 445.052 39.7489 447.926C40.796 450.449 41.4102 454.363 40.9942 457.611C42.4662 454.688 44.2123 451.906 46.2312 449.317C46.3413 449.176 46.4558 449.04 46.5659 448.899C45.4958 447.187 45.3282 445.022 44.1086 443.422C42.1916 440.908 42.2218 438.294 45.3461 436.718C46.8085 432.972 49.61 432.491 51.6434 435.247C52.0523 435.801 52.7223 436.084 53.0966 436.652C52.8941 436.902 53.6383 440.992 53.9069 440.957C53.7484 441.912 53.4137 442.85 52.9865 443.722C51.7975 446.139 49.8291 448.155 47.4687 449.445C42.5585 455.56 39.1544 462.881 37.5823 470.568C37.2917 471.99 37.0671 473.425 36.9041 474.869C36.706 476.634 36.6091 478.404 36.6091 480.174C36.6091 487.218 38.1548 494.222 41.0921 500.636C40.7794 499.254 40.7001 497.818 40.8763 496.41C41.2693 493.218 42.8653 490.195 44.1188 487.177C45.5312 483.776 50.3589 483.753 51.7833 487.148C51.7975 487.182 51.8115 487.216 51.8255 487.249L51.7195 487.671C50.6538 488.69 51.4323 490.44 52.8408 490.352Z" fill="#F2F2F2"/>
<path d="M182.961 314.427H107.252L107.335 313.67L134.184 69.5541H159.802L159.86 70.1714L182.961 314.427ZM110.819 313.063H179.417L158.56 70.9173H135.406L110.819 313.063Z" fill="#3F3D56"/>
<path d="M202.743 324.321H85.9113V313.063H202.743V324.321ZM87.275 322.957H201.379V314.427H87.275V322.957Z" fill="#3F3D56"/>
<path d="M168.398 70.9173H126.473V59.6598H168.398V70.9173ZM127.836 69.5541H167.035V61.023H127.836V69.5541Z" fill="#3F3D56"/>
<path d="M188.161 340.821L204.245 406.507H209.836L188.161 340.821ZM204.245 406.507H188.407L172.186 340.255L171.852 338.892L168.286 324.319H182.72L187.527 338.892L187.977 340.255L188.161 340.821L188.025 340.255L187.691 338.892L183.791 322.956H166.555L170.455 338.892L170.789 340.255L187.343 407.871H204.579L204.245 406.507Z" fill="#3F3D56"/>
<path d="M100.883 338.892L100.405 340.255L77.4283 406.507H84.4101L100.63 340.255L100.964 338.892L101.162 338.081L100.883 338.892ZM104.864 322.956L101.162 338.081L105.935 324.319H120.362L116.796 338.892L116.462 340.255L100.242 406.507H84.4101L84.0759 407.871H101.312L117.867 340.255L118.201 338.892L122.101 322.956H104.864Z" fill="#3F3D56"/>
<path d="M248.598 501.318H219.32L191.494 457.005L192.747 456.468L220.218 499.955H245.164L211.036 417.354L212.289 416.816L248.598 501.318Z" fill="#3F3D56"/>
<path d="M67.3546 501.318H38.0774L74.3855 416.816L75.6386 417.354L41.5111 499.955H66.4564L93.9276 456.468L95.1807 457.005L67.3546 501.318Z" fill="#3F3D56"/>
<path d="M259.658 417.766H33.5131V406.509H259.658V417.766ZM34.8767 416.403H258.294V407.872H34.8767V416.403Z" fill="#3F3D56"/>
<path d="M205.659 479.832C164.215 462.812 122.186 462.812 80.7393 479.832L79.9172 478.627C119.49 454.695 156.49 450.595 206.481 478.627L205.659 479.832Z" fill="#3F3D56"/>
<path d="M202.244 461.597C163.237 444.551 123.68 444.551 84.6727 461.597L84.0747 460.358C123.479 443.139 163.437 443.139 202.842 460.358L202.244 461.597Z" fill="#3F3D56"/>
<path d="M188.025 340.255H100.405L100.883 338.892H187.691L188.025 340.255Z" fill="#3F3D56"/>
<path d="M190.118 348.156H98.0735L99.4372 345.34H189.436L190.118 348.156Z" fill="#3F3D56"/>
<path d="M159.863 61.0912H134.114V38.1935H159.863V61.0912ZM135.477 59.728H158.499V40.92L136.841 39.5568L135.477 59.728Z" fill="#3F3D56"/>
<path d="M150.515 39.5568H142.655V0H150.515V39.5568ZM144.019 38.1936H149.151L147.164 1.12908L144.019 1.36321V38.1936Z" fill="#3F3D56"/>
<path d="M221.813 275.486C220.574 272.295 216.983 270.712 213.791 271.951C210.63 273.177 209.048 276.711 210.222 279.879L210.129 279.915L214.615 291.47L225.251 287.344C225.603 287.274 225.953 287.175 226.299 287.041C229.491 285.803 231.074 282.212 229.835 279.021C228.597 275.83 225.005 274.248 221.813 275.486Z" fill="#1CB4A0"/>
<path d="M123.632 387.951C122.394 384.76 118.802 383.177 115.61 384.415C112.449 385.642 110.867 389.176 112.041 392.344L111.948 392.38L116.434 403.935L127.07 399.809C127.422 399.739 127.772 399.64 128.118 399.506C131.31 398.268 132.893 394.677 131.654 391.486C130.416 388.295 126.824 386.713 123.632 387.951Z" fill="#1CB4A0"/>
<path d="M100.292 149.046C96.883 148.727 93.8605 151.23 93.5408 154.638C93.2241 158.013 95.6785 161.008 99.0378 161.375L99.0285 161.474L111.373 162.632L112.438 151.276C112.533 150.931 112.601 150.573 112.636 150.204C112.956 146.796 110.452 143.774 107.043 143.455C103.634 143.135 100.612 145.639 100.292 149.046Z" fill="#1CB4A0"/>
<path d="M436.453 314.407C436.34 313.447 435.505 312.621 434.544 312.518C433.842 312.442 432.987 312.667 432.684 311.766C432.573 311.436 432.606 311.075 432.721 310.745C433.268 309.176 432.027 307.379 430.428 307.187C428.991 307.015 427.526 308.172 427.363 309.611C426.943 309.428 426.504 309.3 426.056 309.216C424.723 308.856 423.331 308.718 421.943 308.783L419.454 308.899C419.303 308.869 419.151 308.843 419 308.821C413.306 308.003 408.757 313.468 410.238 319.025C414.245 334.069 405.387 335.176 409.227 342.086L427.499 338.957C430.549 339.09 431.484 349.404 431.5 346.353L432.153 323.185C432.555 321.755 432.806 320.43 432.916 319.2C433 319.071 433.077 318.938 433.141 318.797C433.494 318.019 433.445 317.045 432.99 316.345C433.563 316.778 434.356 316.931 435.036 316.688C435.947 316.364 436.567 315.367 436.453 314.407Z" fill="#051937"/>
<path d="M387.659 398.568L391.963 372.554L398.43 371.921L392.145 399.187C392.59 399.676 392.904 400.294 393.016 400.996C393.324 402.918 392.015 404.726 390.092 405.034C388.169 405.341 386.361 404.032 386.054 402.11C385.823 400.672 386.499 399.298 387.659 398.568Z" fill="#FFB6B6"/>
<path d="M408.84 346.627C408.84 346.627 402.878 339.855 399.068 345.812C395.258 351.769 394.715 356.658 391.757 367.022C389.416 375.225 390.596 379.28 390.596 379.28L397.199 380.688L401.736 369.228L408.84 346.627Z" fill="#E6E6E6"/>
<path d="M421.622 489.558L417.354 490.598L411.223 474.271L417.522 472.737L421.622 489.558Z" fill="#FFB6B6"/>
<path d="M409.693 499.773C409.951 500.825 411.012 501.471 412.066 501.216L420.55 499.148L421.273 495.77L422.581 498.651L425.782 497.874L422.255 487.31L421.125 487.517L416.512 488.35L415.025 488.621L415.769 491.674L410.133 498.004C409.705 498.485 409.54 499.146 409.693 499.773Z" fill="#051937"/>
<path d="M428.225 491.798L423.833 491.888L421.385 474.622L427.866 474.487L428.225 491.798Z" fill="#FFB6B6"/>
<path d="M414.366 499.186C414.389 500.27 415.286 501.13 416.37 501.109L425.101 500.928L426.538 497.787L427.19 500.883L430.485 500.817L429.33 489.74L428.181 489.697L423.498 489.512L421.987 489.454L422.053 492.596L415.179 497.555C414.657 497.932 414.353 498.542 414.366 499.186Z" fill="#051937"/>
<path d="M432.563 422.434L383.426 423.489L392.716 392.216H432.563V422.434Z" fill="#D6D5DA"/>
<path d="M423.794 330.675H414.383V337.788L405.661 343.525L401.989 352.588L403.825 357.636L400.055 381.447L423.794 369.338L431.483 339.28L426.548 336.297L423.794 330.675Z" fill="#1CB4A0"/>
<path d="M429.945 369.338L401.989 367.732L389.499 401.532L387.784 429.228L412.318 482.267H421.276L403.358 430.587L406.711 403.464L420.382 482.112L429.945 481.986L426.958 434.945L429.945 369.338Z" fill="#051937"/>
<path d="M426.548 336.297C426.548 336.297 422.575 358.008 422.575 367.732C422.575 377.456 415.409 422.434 415.409 422.434H432.563L435.69 337.92L426.548 336.297Z" fill="#E6E6E6"/>
<path d="M406.895 341.561C406.895 341.561 397.711 343.734 396.956 353.428C396.201 363.123 383.426 423.489 383.426 423.489H392.262L414.383 337.788L406.895 341.561Z" fill="#E6E6E6"/>
<path d="M420.583 330.019C426.286 330.019 430.91 325.396 430.91 319.695C430.91 313.993 426.286 309.371 420.583 309.371C414.879 309.371 410.256 313.993 410.256 319.695C410.256 325.396 414.879 330.019 420.583 330.019Z" fill="#FFB6B6"/>
<path d="M433.207 396.356L433.278 369.988L439.56 368.326L437.735 396.247C438.252 396.658 438.662 397.218 438.885 397.893C439.497 399.741 438.495 401.735 436.647 402.347C434.798 402.959 432.804 401.958 432.191 400.11C431.733 398.727 432.179 397.263 433.207 396.356Z" fill="#FFB6B6"/>
<path d="M429.432 339.885C429.432 339.885 436.675 334.506 439.158 341.127C441.642 347.747 441.153 352.642 441.882 363.394C442.46 371.905 439.811 376.217 439.811 376.217H433.059L431.663 363.47L429.432 339.885Z" fill="#E6E6E6"/>
<path d="M432.621 327.495L434.888 333.753C434.811 336.038 434.344 336.479 432.161 337.161L424.672 342.898C428.274 338.782 422.929 333.706 425.083 330.085C427.354 326.269 427.52 318.39 423.139 317.661C420.971 317.3 416.59 319.521 415.205 318.208C415.475 317.203 414.739 317.131 414.086 317.923C411.19 318.353 409.449 320.124 408.297 318.076V316.031C410.118 310.246 409.661 308.533 416.276 308.336C418.63 308.266 420.98 308.11 423.29 308.57L425.164 308.944C428.799 309.964 430.414 311.384 431.795 314.603C431.795 314.603 435.668 316.639 432.621 327.495Z" fill="#051937"/>
</g>
<defs>
<clipPath id="clip0_214_3130">
<rect width="481" height="502" fill="white"/>
</clipPath>
</defs>
</svg>
