<svg width="11" height="13" viewBox="0 0 11 13" fill="none" xmlns="http://www.w3.org/2000/svg">
<path d="M0.101688 3.04C0.101688 2.31467 0.320354 1.73867 0.757688 1.312C1.19502 0.874666 1.75502 0.655999 2.43769 0.655999C3.12035 0.655999 3.68035 0.874666 4.11769 1.312C4.55502 1.73867 4.77369 2.31467 4.77369 3.04C4.77369 3.776 4.55502 4.36267 4.11769 4.8C3.68035 5.22667 3.12035 5.44 2.43769 5.44C1.75502 5.44 1.19502 5.22667 0.757688 4.8C0.320354 4.36267 0.101688 3.776 0.101688 3.04ZM9.44569 0.832L2.96569 12H1.52569L8.00569 0.832H9.44569ZM2.43769 1.552C2.07502 1.552 1.78702 1.68 1.57369 1.936C1.37102 2.18133 1.26969 2.54933 1.26969 3.04C1.26969 3.53067 1.37102 3.904 1.57369 4.16C1.78702 4.416 2.07502 4.544 2.43769 4.544C2.80035 4.544 3.08835 4.416 3.30169 4.16C3.51502 3.89333 3.62169 3.52 3.62169 3.04C3.62169 2.54933 3.51502 2.18133 3.30169 1.936C3.08835 1.68 2.80035 1.552 2.43769 1.552ZM6.22969 9.792C6.22969 9.056 6.44835 8.47467 6.88569 8.048C7.32302 7.61067 7.88302 7.392 8.56569 7.392C9.24835 7.392 9.80302 7.61067 10.2297 8.048C10.667 8.47467 10.8857 9.056 10.8857 9.792C10.8857 10.5173 10.667 11.0987 10.2297 11.536C9.80302 11.9733 9.24835 12.192 8.56569 12.192C7.88302 12.192 7.32302 11.9787 6.88569 11.552C6.44835 11.1147 6.22969 10.528 6.22969 9.792ZM8.54969 8.304C8.18702 8.304 7.89902 8.432 7.68569 8.688C7.47235 8.93333 7.36569 9.30133 7.36569 9.792C7.36569 10.272 7.47235 10.64 7.68569 10.896C7.89902 11.1413 8.18702 11.264 8.54969 11.264C8.91235 11.264 9.20035 11.1413 9.41369 10.896C9.62702 10.64 9.73369 10.272 9.73369 9.792C9.73369 9.30133 9.62702 8.93333 9.41369 8.688C9.20035 8.432 8.91235 8.304 8.54969 8.304Z" fill="#00883B"/>
</svg>
