<svg width="15" height="25" viewBox="0 0 15 25" fill="none" xmlns="http://www.w3.org/2000/svg">
<path d="M5.81783 15.4756V23.1265L6.91051 24.7388C7.14622 25.0864 7.66576 25.0864 7.90147 24.7388L8.99365 23.1265V15.4756C8.47808 15.5693 7.94861 15.625 7.40574 15.625C6.86288 15.625 6.33341 15.5693 5.81783 15.4756ZM7.40574 0C3.4593 0 0.260162 3.14795 0.260162 7.03125C0.260162 10.9146 3.4593 14.0625 7.40574 14.0625C11.3522 14.0625 14.5513 10.9146 14.5513 7.03125C14.5513 3.14795 11.3522 0 7.40574 0ZM7.40574 3.71094C5.54491 3.71094 4.03144 5.2002 4.03144 7.03125C4.03144 7.35449 3.76447 7.61719 3.43598 7.61719C3.10748 7.61719 2.84051 7.35449 2.84051 7.03125C2.84051 4.5542 4.88891 2.53906 7.40574 2.53906C7.73424 2.53906 8.00121 2.80176 8.00121 3.125C8.00121 3.44824 7.73424 3.71094 7.40574 3.71094Z" fill="#00883B"/>
</svg>
