<svg width="319" height="266" viewBox="0 0 319 266" fill="none" xmlns="http://www.w3.org/2000/svg">
<g clip-path="url(#clip0_214_1908)">
<path d="M79.6027 204.709H308.555C309.867 204.71 311.165 204.451 312.376 203.948C313.588 203.446 314.688 202.709 315.615 201.78C316.543 200.852 317.278 199.749 317.78 198.536C318.282 197.322 318.54 196.022 318.54 194.708V62.0908C318.542 61.2045 318.424 60.322 318.19 59.4672C317.615 57.3485 316.361 55.4781 314.619 54.1448C312.878 52.8115 310.747 52.0893 308.555 52.0898H219.13C217.043 55.6097 215.758 59.5471 215.364 63.6216C214.255 75.4669 221.035 86.4177 227.102 96.6492C233.169 106.881 238.955 118.777 235.742 130.235C233.57 137.963 227.682 143.556 220.377 146.908C213.358 150.019 205.636 151.197 198.01 150.32C193.43 149.74 188.919 148.709 184.541 147.24C178.801 145.372 173.194 142.952 167.597 140.503C167.592 140.503 167.592 140.503 167.588 140.499C167.491 140.457 167.39 140.411 167.293 140.369C162.962 138.474 158.635 136.575 154.243 134.901C149.098 132.885 143.757 131.411 138.307 130.502C130.026 129.202 121.676 129.672 114.288 133.435C102.246 139.563 95.7921 152.805 90.7424 165.356C85.6421 178.045 81.0711 191.158 79.6027 204.709Z" fill="#051937"/>
<path d="M0.460327 153.976V194.709C0.460256 196.022 0.718453 197.322 1.22019 198.536C1.72192 199.749 2.45736 200.852 3.3845 201.78C4.31164 202.709 5.41232 203.446 6.6237 203.948C7.83508 204.451 9.13344 204.71 10.4446 204.71H48.5037C49.1619 198.563 48.6095 192.44 46.1929 186.727C40.9268 174.269 28.1852 166.9 16.0375 160.985C10.9326 158.499 5.74017 156.102 0.460327 153.976Z" fill="#051937"/>
<path d="M40.3455 195.303C40.3455 197.956 41.3974 200.5 43.2698 202.375C45.1422 204.251 47.6817 205.304 50.3297 205.304H88.3888C89.047 199.158 88.4947 193.035 86.078 187.322C84.8399 184.393 81.9479 181.148 78.1796 177.871C63.3949 165.012 40.3455 175.69 40.3455 195.303Z" fill="#051937"/>
<path d="M0 194.708V62.0908C0.00313844 59.3171 1.10455 56.6578 3.06261 54.6965C5.02067 52.7352 7.67547 51.6319 10.4446 51.6288H308.555C311.325 51.6319 313.979 52.7352 315.937 54.6965C317.895 56.6578 318.997 59.3171 319 62.0908V194.708C318.997 197.482 317.896 200.141 315.937 202.103C313.979 204.064 311.325 205.167 308.555 205.171H10.4446C7.67543 205.167 5.0206 204.064 3.06254 202.103C1.10448 200.141 0.00309091 197.482 0 194.708ZM10.4446 52.551C7.91954 52.5538 5.49872 53.5598 3.71325 55.3482C1.92777 57.1367 0.923455 59.5615 0.920635 62.0908V194.708C0.923409 197.238 1.9277 199.663 3.71318 201.451C5.49866 203.24 7.9195 204.246 10.4446 204.248H308.555C311.081 204.246 313.501 203.24 315.287 201.451C317.072 199.663 318.077 197.238 318.079 194.708V62.0908C318.077 59.5615 317.072 57.1367 315.287 55.3482C313.501 53.5598 311.08 52.5538 308.555 52.551H10.4446Z" fill="#3F3D56"/>
<path d="M98.6506 204.382H112.189C114.504 196.573 117.846 188.295 120.898 180.752C126.753 166.289 134.233 151.028 148.195 143.966C154.156 140.95 160.655 139.772 167.293 139.836C176.463 139.924 185.89 142.389 194.521 145.657C198.052 146.99 201.55 148.457 205.035 149.955C218.163 155.606 231.148 161.761 245.266 163.424C263.131 165.528 284.136 157.522 289.015 140.276C292.739 127.073 286.032 113.366 278.998 101.574C271.965 89.7827 264.103 77.1662 265.387 63.5139C265.391 63.4681 265.396 63.4177 265.405 63.3719C265.889 58.4682 268.812 54.9441 272.895 52.6848H255.117C254.882 65.4205 262.238 76.6621 268.858 87.7617C275.891 99.5488 282.598 113.261 278.874 126.464C273.995 143.704 233.591 123.495 215.726 121.387C210.681 120.796 218.695 122.899 213.885 121.387C206.341 119.017 205.504 140.748 198.162 137.559C193.591 135.57 189.016 133.595 184.38 131.839C182.461 131.111 180.5 130.428 178.516 129.796C178.511 129.796 178.511 129.795 178.506 129.791C165.185 125.566 150.616 123.92 138.307 130.029C138.224 130.07 138.137 130.112 138.054 130.153C124.092 137.21 116.612 152.471 110.757 166.935C105.919 178.891 101.035 191.77 98.6506 204.382Z" fill="#E0E0E0"/>
<path d="M98.7978 109.328H10.7429C10.0214 109.328 9.32942 109.615 8.81923 110.126C8.30905 110.637 8.02243 111.331 8.02243 112.053C8.02243 112.776 8.30905 113.469 8.81923 113.98C9.32942 114.491 10.0214 114.778 10.7429 114.778H98.7978C99.5193 114.778 100.211 114.491 100.721 113.98C101.232 113.469 101.518 112.776 101.518 112.053C101.518 111.331 101.232 110.637 100.721 110.126C100.211 109.615 99.5193 109.328 98.7978 109.328Z" fill="#3F3D56"/>
<path d="M38.1057 94.0487H10.8041C10.0826 94.0487 9.39063 94.3358 8.88044 94.8468C8.37025 95.3579 8.08362 96.051 8.08362 96.7737C8.08362 97.4965 8.37025 98.1896 8.88044 98.7006C9.39063 99.2117 10.0826 99.4988 10.8041 99.4988H38.1057C38.8273 99.4988 39.5192 99.2117 40.0294 98.7006C40.5396 98.1896 40.8262 97.4965 40.8262 96.7737C40.8262 96.051 40.5396 95.3579 40.0294 94.8468C39.5192 94.3358 38.8272 94.0487 38.1057 94.0487Z" fill="#3F3D56"/>
<path d="M143.388 253.563L137.807 253.516L135.337 231.453L143.573 231.522L143.388 253.563Z" fill="#FFB6B6"/>
<path d="M125.513 262.452C125.508 263.114 125.765 263.752 126.229 264.225C126.693 264.697 127.325 264.966 127.986 264.973L139.082 265.066L141.024 261.122L141.737 265.086L145.924 265.124L144.867 250.986L143.41 250.889L137.469 250.479L135.552 250.35L135.519 254.35L126.606 260.406C126.272 260.633 125.998 260.937 125.808 261.294C125.617 261.65 125.516 262.048 125.513 262.452Z" fill="#2F2E41"/>
<path d="M200.007 253.563L194.426 253.516L191.956 231.453L200.192 231.522L200.007 253.563Z" fill="#FFB6B6"/>
<path d="M182.132 262.452C182.127 263.114 182.384 263.752 182.848 264.225C183.312 264.697 183.944 264.966 184.605 264.973L195.701 265.066L197.643 261.122L198.356 265.086L202.543 265.124L201.486 250.986L200.029 250.889L194.088 250.479L192.171 250.35L192.138 254.35L183.225 260.406C182.891 260.633 182.617 260.937 182.427 261.294C182.236 261.65 182.135 262.048 182.132 262.452Z" fill="#2F2E41"/>
<path d="M136.504 76.8726L161.62 57.511C162.681 56.6876 163.377 55.479 163.557 54.1462C163.737 52.8134 163.387 51.4631 162.581 50.3868C162.165 49.83 161.639 49.364 161.037 49.0172C160.435 48.6704 159.769 48.4501 159.079 48.3698C158.389 48.2894 157.69 48.3506 157.024 48.5497C156.358 48.7488 155.74 49.0815 155.207 49.5277L129.733 70.4408L113.72 82.4948C112.927 82.0333 112.012 81.8273 111.099 81.9049C110.185 81.9825 109.318 82.3398 108.615 82.9284C107.911 83.517 107.405 84.3082 107.166 85.1946C106.927 86.081 106.967 87.0197 107.279 87.883C107.591 88.7463 108.161 89.4924 108.911 90.02C109.661 90.5476 110.555 90.8311 111.472 90.8319C112.389 90.8327 113.283 90.5509 114.034 90.0246C114.786 89.4984 115.357 88.7533 115.671 87.8906L136.504 76.8726Z" fill="#FFB6B6"/>
<path d="M156.974 81.3235L155.867 106.09L193.469 110.648C190.51 100.696 185.658 86.8734 187.881 79.9475L156.974 81.3235Z" fill="#A0616A"/>
<path d="M178.348 35.9188H166.766L161.791 44.4448L159.421 44.3137C154.802 46.0957 152.961 47.9401 150.412 52.8539L141.453 60.3894L148.358 68.689C153.127 67.9063 154.846 64.1981 153.332 57.3878C153.332 57.3878 148.109 66.505 155.632 70.9903C155.632 70.9903 154.291 79.4412 155.632 79.3503C156.974 79.2595 160.065 77.5396 156.974 79.2595C153.884 80.9794 154.413 81.0536 154.514 81.6109C156.183 90.8211 157.564 97.7374 157.564 97.7374L190.246 100.965C190.246 100.965 188.363 81.1668 188.466 80.0412C188.568 78.9155 187.881 81.6674 188.568 78.9155C189.255 76.1636 190.285 77.1956 189.255 76.1636C188.225 75.1317 196.337 74.243 193.171 69.2839L203.758 66.5173L197.84 52.4287C197.84 47.6717 190.213 43.8155 185.464 43.8155H184.855L178.348 35.9188Z" fill="#E6E6E6"/>
<path d="M190.674 97.224C177.888 101.63 166.377 100.662 156.643 92.2043C156.643 92.2043 153.904 102.348 151.131 100.965C148.358 99.5817 149.728 103.452 148.966 104.871C148.158 106.378 149.097 108.92 146.426 109.784C143.754 110.648 144.758 113.187 143.893 115.056C137.842 128.135 130.931 146.647 126.262 170.128C121.465 194.256 133.167 234.68 133.167 234.68L144.215 233.758L146.977 181.194L159.609 158.976C159.609 158.976 165.815 155.357 161.92 153.521C158.024 151.684 160.634 149.409 163.472 149.855C166.31 150.301 169.532 135.546 169.532 135.546C165.486 145.733 190.707 235.602 190.707 235.602L201.294 234.68L195.31 109.265L190.674 97.224Z" fill="#2F2E41"/>
<path d="M185.222 14.5142C186.478 17.6465 190.02 23.8063 190.5 27.1666L190.284 26.9539C189.872 27.6588 189.404 28.3292 188.884 28.9586C187.953 27.9787 186.828 27.2038 185.581 26.6834C186.262 28.0828 186.656 29.6046 186.74 31.1591C184.434 33.1705 178.545 31.9569 175.603 33.0289C170.868 34.7497 165.841 35.3623 160.877 35.8711C159.115 36.0527 157.143 36.163 155.908 35.1202C154.673 34.0774 155.409 32.1462 154.744 30.6856C150.013 20.2814 154.38 16.5276 158.089 11.81C158.906 10.7718 158.902 9.22251 159.896 8.23195C161.274 6.85894 163.387 6.43662 165.335 6.09832C164.829 6.12503 164.325 6.0208 163.87 5.79568C163.416 5.57056 163.028 5.23212 162.742 4.81294C162.491 4.39061 162.362 3.90714 162.368 3.41585C162.374 2.92456 162.516 2.44454 162.777 2.02873C163.474 0.871792 164.922 0.199017 166.318 0.0309466C167.694 -0.0626483 169.076 0.0563651 170.416 0.383811C171.284 0.498155 172.125 0.76724 172.898 1.17834C173.263 1.37331 173.559 1.6752 173.748 2.04363C173.937 2.41207 174.01 2.8295 173.955 3.24011C173.839 3.61929 173.639 3.96727 173.369 4.25808C173.1 4.54889 172.768 4.77503 172.4 4.91965C171.837 5.15778 171.246 5.31995 170.641 5.4019C173.42 5.0407 176.242 5.5356 178.734 6.82076C181.856 8.48889 183.962 11.3836 185.222 14.5142Z" fill="#2F2E41"/>
<path d="M168.317 32.075C174.481 32.075 179.477 27.0702 179.477 20.8964C179.477 14.7226 174.481 9.71777 168.317 9.71777C162.154 9.71777 157.157 14.7226 157.157 20.8964C157.157 27.0702 162.154 32.075 168.317 32.075Z" fill="#FFB6B6"/>
<path d="M179.056 14.9027C178.409 16.8616 176.56 17.4928 174.851 17.8865C174.312 18.0123 173.77 18.1295 173.222 18.2338C173.02 17.981 172.806 17.7332 172.581 17.499C171.65 16.5191 170.525 15.7442 169.278 15.2238C169.817 16.3292 170.176 17.5142 170.339 18.7335C169.306 18.8837 168.267 19.0064 167.223 19.1017C166.339 19.2901 165.416 19.1312 164.646 18.6578C163.876 18.1844 163.317 17.4328 163.084 16.5581C162.133 18.1159 161.008 19.583 159.471 20.2018C158.591 20.5183 157.634 20.5443 156.739 20.276C155.843 20.0077 155.058 19.4593 154.496 18.7111C153.575 17.5856 153.062 16.0737 152.693 14.6145C152.257 12.8798 152.015 10.8816 152.871 9.78094C153.558 8.89019 154.742 8.8742 155.835 8.95322C158.246 9.13852 160.632 9.57181 162.955 10.2463L163.151 10.6891C162.752 8.2869 163.618 5.97564 165.22 5.15367C166.301 4.60409 167.601 4.69624 168.864 4.80773C170.487 4.88025 172.09 5.19083 173.623 5.72952C175.381 6.40698 176.887 7.61204 177.936 9.17984C179.057 10.8852 179.614 13.211 179.056 14.9027Z" fill="#2F2E41"/>
<path d="M163.146 4.45447C163.257 4.42191 162.971 4.46374 163.07 4.46639C163.021 4.46354 162.972 4.45669 162.924 4.44591C162.916 4.44428 162.805 4.40876 162.879 4.43485C162.713 4.3852 162.565 4.28855 162.453 4.15657C162.191 3.83185 161.985 3.46521 161.845 3.07205C161.667 2.55249 161.382 2.07637 161.008 1.67495C160.902 1.56814 160.772 1.48791 160.629 1.44078C160.486 1.39365 160.334 1.38093 160.186 1.40368C160.037 1.42642 159.896 1.48398 159.773 1.57167C159.651 1.65937 159.551 1.77473 159.481 1.9084C159.264 2.38998 159.462 2.98336 159.618 3.45635C159.777 3.94781 160.016 4.41019 160.323 4.82568C160.837 5.50512 161.538 6.02 162.339 6.30757C163.267 6.64505 164.278 6.67401 165.224 6.39014C165.349 6.33824 165.456 6.25107 165.532 6.13926C165.608 6.02745 165.65 5.89581 165.653 5.7604C165.656 5.62498 165.62 5.49163 165.549 5.37658C165.477 5.26154 165.374 5.16977 165.251 5.11247L163.675 4.46601C163.592 4.42943 163.502 4.40958 163.412 4.4076C163.321 4.40562 163.231 4.42155 163.146 4.45447C163.062 4.4874 162.985 4.53665 162.919 4.59946C162.854 4.66227 162.801 4.73739 162.765 4.82052C162.728 4.90366 162.708 4.99319 162.706 5.08399C162.704 5.1748 162.72 5.26511 162.753 5.34976C162.786 5.43441 162.835 5.51175 162.898 5.57736C162.961 5.64297 163.036 5.69557 163.119 5.73215L164.695 6.37859L164.723 5.10092C164.526 5.1578 164.324 5.19247 164.12 5.20429C163.901 5.22617 163.681 5.21687 163.466 5.17667C163.259 5.14957 163.057 5.10003 162.861 5.02893C162.736 4.98308 162.613 4.93089 162.493 4.87256C162.449 4.85135 162.406 4.82933 162.363 4.8065C162.366 4.80815 162.183 4.70114 162.263 4.75142C162.059 4.62089 161.868 4.4716 161.692 4.3055C161.629 4.24659 161.572 4.18269 161.52 4.11444C161.43 4.0039 161.347 3.8882 161.271 3.76794C161.115 3.51326 160.992 3.2402 160.905 2.95504C160.864 2.8352 160.831 2.71335 160.803 2.58998C160.796 2.52226 160.783 2.45514 160.767 2.38909C160.708 2.23171 160.778 2.48099 160.71 2.54918L160.42 2.7637C160.365 2.77999 160.308 2.78377 160.251 2.77475C160.195 2.76573 160.142 2.74415 160.095 2.7116C160.06 2.66307 160.068 2.67112 160.117 2.73576C160.175 2.81183 160.228 2.89148 160.275 2.97423C160.379 3.16905 160.474 3.36904 160.558 3.57343C160.731 4.00811 160.95 4.42301 161.212 4.81104C161.468 5.20352 161.841 5.50498 162.279 5.67245C162.716 5.83993 163.195 5.86486 163.647 5.7437C163.817 5.67602 163.953 5.54422 164.027 5.37673C164.1 5.20924 164.105 5.0195 164.04 4.84843C163.971 4.67984 163.839 4.54466 163.673 4.47122C163.506 4.39778 163.317 4.39178 163.146 4.45447Z" fill="#2F2E41"/>
<path d="M145.741 125.907C163.965 125.907 178.739 111.109 178.739 92.8543C178.739 74.5996 163.965 59.8013 145.741 59.8013C127.516 59.8013 112.743 74.5996 112.743 92.8543C112.743 111.109 127.516 125.907 145.741 125.907Z" fill="white"/>
<path d="M145.741 126.368C139.123 126.368 132.654 124.403 127.152 120.72C121.65 117.038 117.362 111.804 114.829 105.68C112.297 99.5558 111.634 92.8172 112.925 86.3161C114.216 79.815 117.403 73.8434 122.082 69.1564C126.761 64.4693 132.723 61.2774 139.213 59.9842C145.703 58.691 152.431 59.3547 158.544 61.8913C164.658 64.4278 169.884 68.7234 173.56 74.2347C177.236 79.7461 179.199 86.2256 179.199 92.8541C179.189 101.74 175.661 110.258 169.388 116.541C163.116 122.824 154.611 126.358 145.741 126.368ZM145.741 60.2624C139.305 60.2624 133.015 62.1739 127.664 65.7551C122.313 69.3364 118.143 74.4266 115.68 80.382C113.217 86.3374 112.573 92.8905 113.828 99.2128C115.084 105.535 118.183 111.342 122.733 115.9C127.284 120.458 133.081 123.562 139.393 124.82C145.705 126.078 152.247 125.432 158.192 122.965C164.138 120.498 169.22 116.321 172.795 110.961C176.37 105.602 178.278 99.3002 178.278 92.8541C178.268 84.2132 174.837 75.929 168.737 69.819C162.638 63.709 154.367 60.2721 145.741 60.2624Z" fill="#3F3D56"/>
<path d="M141.239 110.057C140.669 110.057 140.107 109.924 139.598 109.669C139.088 109.413 138.645 109.043 138.303 108.586L129.301 96.5625C129.011 96.1762 128.801 95.7367 128.681 95.269C128.562 94.8012 128.535 94.3145 128.603 93.8366C128.672 93.3586 128.833 92.8988 129.079 92.4833C129.324 92.0679 129.649 91.7049 130.035 91.4153C130.42 91.1256 130.859 90.9148 131.326 90.795C131.793 90.6752 132.279 90.6487 132.756 90.717C133.233 90.7853 133.692 90.9471 134.107 91.1931C134.522 91.4391 134.884 91.7645 135.173 92.1507L141.063 100.016L156.19 77.2884C156.457 76.8866 156.801 76.5416 157.202 76.2729C157.602 76.0042 158.051 75.8172 158.524 75.7225C158.997 75.6278 159.483 75.6273 159.956 75.721C160.429 75.8147 160.879 76.0008 161.28 76.2686C161.681 76.5365 162.026 76.8808 162.294 77.282C162.562 77.6832 162.749 78.1334 162.843 78.6068C162.938 79.0803 162.938 79.5677 162.845 80.0414C162.751 80.5151 162.566 80.9656 162.298 81.3674L144.294 108.419C143.968 108.909 143.53 109.313 143.016 109.597C142.502 109.882 141.928 110.039 141.341 110.056C141.307 110.056 141.273 110.057 141.239 110.057Z" fill="#051937"/>
<path d="M109.393 265.451C109.393 265.523 109.407 265.595 109.435 265.662C109.462 265.728 109.503 265.789 109.553 265.84C109.604 265.891 109.665 265.931 109.731 265.959C109.798 265.986 109.869 266 109.941 266H226.535C226.68 266 226.82 265.942 226.922 265.839C227.025 265.736 227.083 265.597 227.083 265.451C227.083 265.306 227.025 265.166 226.922 265.063C226.82 264.96 226.68 264.903 226.535 264.903H109.941C109.869 264.902 109.798 264.916 109.731 264.944C109.665 264.971 109.604 265.012 109.553 265.063C109.503 265.114 109.462 265.174 109.435 265.241C109.407 265.308 109.393 265.379 109.393 265.451Z" fill="#CCCCCC"/>
<path d="M212.626 93.9848L201.839 64.1343C201.378 62.871 200.44 61.8397 199.227 61.2632C198.014 60.6866 196.623 60.6109 195.355 61.0524C194.699 61.2808 194.096 61.6406 193.583 62.11C193.07 62.5794 192.658 63.1484 192.372 63.7825C192.086 64.4165 191.932 65.1023 191.919 65.798C191.907 66.4936 192.035 67.1846 192.298 67.8288L204.452 98.4921L211.053 117.436C210.373 118.052 209.899 118.863 209.695 119.758C209.492 120.653 209.568 121.59 209.914 122.44C210.26 123.29 210.859 124.013 211.63 124.51C212.4 125.008 213.305 125.255 214.221 125.22C215.137 125.184 216.02 124.867 216.75 124.311C217.479 123.756 218.021 122.988 218.3 122.114C218.579 121.239 218.583 120.3 218.31 119.423C218.038 118.546 217.503 117.775 216.777 117.213L212.626 93.9848Z" fill="#FFB6B6"/>
<path d="M196.393 50.8405L205.139 66.5174C205.139 66.5174 184.983 73.4301 184.934 72.2792C184.885 71.1283 185.936 55.1572 185.936 55.1572L196.393 50.8405Z" fill="#E6E6E6"/>
</g>
<defs>
<clipPath id="clip0_214_1908">
<rect width="319" height="266" fill="white"/>
</clipPath>
</defs>
</svg>
