<svg width="57" height="57" viewBox="0 0 57 57" fill="none" xmlns="http://www.w3.org/2000/svg">
<path d="M49.875 23.75C49.875 40.375 28.5 54.625 28.5 54.625C28.5 54.625 7.125 40.375 7.125 23.75C7.125 18.081 9.377 12.6442 13.3856 8.63559C17.3942 4.627 22.831 2.375 28.5 2.375C34.169 2.375 39.6058 4.627 43.6144 8.63559C47.623 12.6442 49.875 18.081 49.875 23.75Z" stroke="#051937" stroke-width="2" stroke-linecap="round" stroke-linejoin="round"/>
<path d="M28.5 30.875C32.435 30.875 35.625 27.685 35.625 23.75C35.625 19.815 32.435 16.625 28.5 16.625C24.565 16.625 21.375 19.815 21.375 23.75C21.375 27.685 24.565 30.875 28.5 30.875Z" stroke="#051937" stroke-width="2" stroke-linecap="round" stroke-linejoin="round"/>
</svg>
