<svg width="14" height="18" viewBox="0 0 14 18" fill="none" xmlns="http://www.w3.org/2000/svg">
<path d="M6.17072 17.6368C1.17179 10.2316 0.243896 9.47155 0.243896 6.75C0.243896 3.02207 3.20135 0 6.84959 0C10.4978 0 13.4553 3.02207 13.4553 6.75C13.4553 9.47155 12.5274 10.2316 7.52846 17.6368C7.20041 18.1211 6.49873 18.121 6.17072 17.6368ZM6.84959 9.5625C8.36969 9.5625 9.60196 8.30331 9.60196 6.75C9.60196 5.19669 8.36969 3.9375 6.84959 3.9375C5.32949 3.9375 4.09722 5.19669 4.09722 6.75C4.09722 8.30331 5.32949 9.5625 6.84959 9.5625Z" fill="#00883B"/>
</svg>
